<svg width="26" height="27" viewBox="0 0 26 27" fill="none" xmlns="http://www.w3.org/2000/svg">
<path d="M18.4406 0H7.2666C3.47196 0 0.384766 3.26023 0.384766 7.26736V19.0671C0.384766 23.0744 3.47196 26.3345 7.2666 26.3345H18.4406C22.2356 26.3345 25.3228 23.0742 25.3228 19.0671V7.26736C25.3229 3.26023 22.2356 0 18.4406 0ZM23.1103 19.0671C23.1103 21.786 21.0155 23.998 18.4408 23.998H7.2666C4.692 23.9981 2.59738 21.786 2.59738 19.0671V7.26736C2.59738 4.54859 4.692 2.33652 7.2666 2.33652H18.4406C21.0154 2.33652 23.1101 4.54859 23.1101 7.26736V19.0671H23.1103Z" fill="#CA8831"/>
<path d="M12.8538 6.38184C9.31046 6.38184 6.42786 9.42583 6.42786 13.1675C6.42786 16.909 9.31046 19.9529 12.8538 19.9529C16.3971 19.9529 19.2797 16.909 19.2797 13.1675C19.2797 9.42583 16.3971 6.38184 12.8538 6.38184ZM12.8538 17.6162C10.5307 17.6162 8.64048 15.6205 8.64048 13.1674C8.64048 10.714 10.5305 8.71819 12.8538 8.71819C15.177 8.71819 17.067 10.714 17.067 13.1674C17.067 15.6205 15.1769 17.6162 12.8538 17.6162Z" fill="#CA8831"/>
<path d="M19.5493 4.40015C19.1229 4.40015 18.7042 4.58241 18.4031 4.90177C18.1006 5.21957 17.9266 5.662 17.9266 6.11377C17.9266 6.56414 18.1007 7.00641 18.4031 7.32577C18.704 7.64357 19.1229 7.82739 19.5493 7.82739C19.977 7.82739 20.3945 7.64357 20.6969 7.32577C20.9993 7.00641 21.1719 6.56398 21.1719 6.11377C21.1719 5.662 20.9993 5.21957 20.6969 4.90177C20.396 4.58241 19.977 4.40015 19.5493 4.40015Z" fill="#CA8831"/>
</svg>
