<svg width="43" height="40" viewBox="0 0 43 40" fill="none" xmlns="http://www.w3.org/2000/svg">
<path d="M29.4411 4.6275C22.7154 -1.5425 11.7689 -1.5425 5.04318 4.6275C-1.68106 10.7988 -1.68106 20.8397 5.04318 27.011C11.0326 32.5042 20.3608 33.0927 27.0821 28.8033C27.2235 29.4172 28.4288 29.1943 28.9493 29.6718L38.744 38.6573C40.1714 39.964 40.9264 39.2198 41.8588 39.2198C43.2847 37.9117 43.2847 36.6431 41.8588 35.339L32.064 26.3508C31.5465 25.8773 32.064 24.978 31.3948 24.8482C36.0735 18.6809 35.432 10.1247 29.4411 4.6275ZM26.3487 24.1741C21.3274 28.7805 13.1554 28.7805 8.13556 24.1741C3.11717 19.5677 3.11717 12.0722 8.13556 7.46573C13.1554 2.86063 21.3274 2.86063 26.3487 7.46573C31.37 12.0722 31.37 19.5677 26.3487 24.1741Z" fill="#C4C4C4"/>
</svg>
