<svg width="28" height="25" viewBox="0 0 28 25" fill="none" xmlns="http://www.w3.org/2000/svg">
<path d="M27.7693 3.39454C26.7366 3.87288 25.6363 4.18994 24.489 4.34389C25.6692 3.59981 26.57 2.43053 26.9935 1.02116C25.8931 1.71393 24.6782 2.20327 23.3835 2.47634C22.3387 1.30157 20.8495 0.573975 19.225 0.573975C16.0732 0.573975 13.5358 3.27541 13.5358 6.58715C13.5358 7.06366 13.574 7.52184 13.6677 7.95803C8.93477 7.71428 4.74681 5.3189 1.93344 1.66994C1.44227 2.56981 1.15416 3.59981 1.15416 4.7086C1.15416 6.79058 2.16948 8.63614 3.6829 9.70462C2.76825 9.68629 1.87096 9.40588 1.11077 8.9642C1.11077 8.98252 1.11077 9.00635 1.11077 9.03017C1.11077 11.9515 3.08413 14.3781 5.67188 14.937C5.20848 15.0708 4.70342 15.135 4.17928 15.135C3.81481 15.135 3.44686 15.113 3.10148 15.0324C3.8391 17.4131 5.93221 19.1633 8.42104 19.2201C6.48413 20.8201 4.02481 21.7841 1.36243 21.7841C0.89556 21.7841 0.44778 21.7621 0 21.7016C2.5218 23.4189 5.51047 24.3994 8.73344 24.3994C19.2094 24.3994 24.9368 15.2358 24.9368 7.29275C24.9368 7.027 24.9281 6.77042 24.916 6.51567C26.0459 5.66895 26.9952 4.61147 27.7693 3.39454Z" fill="#CA8831"/>
</svg>
